<svg xmlns="http://www.w3.org/2000/svg" viewBox="0 0 2880 1336" width="2880" height="1336">
  <defs>
    <!-- 背景渐变 -->
    <linearGradient id="bgGrad" x1="0%" y1="0%" x2="0%" y2="100%">
      <stop offset="0%" style="stop-color:#0a0a1a"/>
      <stop offset="50%" style="stop-color:#0d0d2b"/>
      <stop offset="100%" style="stop-color:#0a0a1a"/>
    </linearGradient>

    <!-- 背景网格 -->
    <pattern id="grid" width="36" height="36" patternUnits="userSpaceOnUse">
      <path d="M 36 0 L 0 0 0 36" fill="none" stroke="rgba(100,100,180,0.06)" stroke-width="0.5"/>
    </pattern>

    <!-- 菱形填充渐变（蓝紫色） -->
    <linearGradient id="diamondFill" x1="0%" y1="0%" x2="100%" y2="100%">
      <stop offset="0%" style="stop-color:#1a1a6a;stop-opacity:0.6"/>
      <stop offset="100%" style="stop-color:#0a0a3a;stop-opacity:0.8"/>
    </linearGradient>

    <!-- 菱形边框渐变 -->
    <linearGradient id="diamondStroke" x1="0%" y1="0%" x2="100%" y2="100%">
      <stop offset="0%" style="stop-color:#4a4aff;stop-opacity:0.8"/>
      <stop offset="100%" style="stop-color:#2a2a8a;stop-opacity:0.6"/>
    </linearGradient>

    <!-- 节点发光 - 青色 -->
    <radialGradient id="nodeCyan" cx="50%" cy="50%" r="50%">
      <stop offset="0%" style="stop-color:#00ffff;stop-opacity:1"/>
      <stop offset="100%" style="stop-color:#0088ff;stop-opacity:0.2"/>
    </radialGradient>

    <!-- 节点发光 - 紫色 -->
    <radialGradient id="nodePurple" cx="50%" cy="50%" r="50%">
      <stop offset="0%" style="stop-color:#cc88ff;stop-opacity:1"/>
      <stop offset="100%" style="stop-color:#6600cc;stop-opacity:0.2"/>
    </radialGradient>

    <!-- 节点发光 - 蓝色 -->
    <radialGradient id="nodeBlue" cx="50%" cy="50%" r="50%">
      <stop offset="0%" style="stop-color:#88ccff;stop-opacity:1"/>
      <stop offset="100%" style="stop-color:#0044cc;stop-opacity:0.2"/>
    </radialGradient>

    <!-- 右侧应用卡片渐变 -->
    <linearGradient id="cardPretrain" x1="0%" y1="0%" x2="100%" y2="100%">
      <stop offset="0%" style="stop-color:#6a2aff"/>
      <stop offset="100%" style="stop-color:#4a00cc"/>
    </linearGradient>
    <linearGradient id="cardFinetune" x1="0%" y1="0%" x2="100%" y2="100%">
      <stop offset="0%" style="stop-color:#44cc88"/>
      <stop offset="100%" style="stop-color:#228855"/>
    </linearGradient>
    <linearGradient id="cardEval" x1="0%" y1="0%" x2="100%" y2="100%">
      <stop offset="0%" style="stop-color:#cc8844"/>
      <stop offset="100%" style="stop-color:#885522"/>
    </linearGradient>
    <linearGradient id="cardSearch" x1="0%" y1="0%" x2="100%" y2="100%">
      <stop offset="0%" style="stop-color:#8844cc"/>
      <stop offset="100%" style="stop-color:#550088"/>
    </linearGradient>

    <!-- 发光滤镜 -->
    <filter id="glow" x="-50%" y="-50%" width="200%" height="200%">
      <feGaussianBlur stdDeviation="4" result="blur"/>
      <feMerge>
        <feMergeNode in="blur"/>
        <feMergeNode in="SourceGraphic"/>
      </feMerge>
    </filter>

    <filter id="glowStrong" x="-50%" y="-50%" width="200%" height="200%">
      <feGaussianBlur stdDeviation="8" result="blur"/>
      <feMerge>
        <feMergeNode in="blur"/>
        <feMergeNode in="SourceGraphic"/>
      </feMerge>
    </filter>

    <filter id="shadow" x="-20%" y="-20%" width="140%" height="140%">
      <feDropShadow dx="0" dy="3" stdDeviation="6" flood-color="#000" flood-opacity="0.6"/>
    </filter>

    <!-- 连接线流光动画 -->
    <linearGradient id="flowLine1" x1="0%" y1="0%" x2="100%" y2="0%">
      <stop offset="0%" style="stop-color:#4a4aff;stop-opacity:0.2"/>
      <stop offset="50%" style="stop-color:#8844ff;stop-opacity:1"/>
      <stop offset="100%" style="stop-color:#4a4aff;stop-opacity:0.2"/>
    </linearGradient>

    <linearGradient id="flowLine2" x1="0%" y1="0%" x2="100%" y2="0%">
      <stop offset="0%" style="stop-color:#44cc88;stop-opacity:0.2"/>
      <stop offset="50%" style="stop-color:#66eeaa;stop-opacity:1"/>
      <stop offset="100%" style="stop-color:#44cc88;stop-opacity:0.2"/>
    </linearGradient>

    <linearGradient id="flowLine3" x1="0%" y1="0%" x2="100%" y2="0%">
      <stop offset="0%" style="stop-color:#cc8844;stop-opacity:0.2"/>
      <stop offset="50%" style="stop-color:#eebb66;stop-opacity:1"/>
      <stop offset="100%" style="stop-color:#cc8844;stop-opacity:0.2"/>
    </linearGradient>

    <linearGradient id="flowLine4" x1="0%" y1="0%" x2="100%" y2="0%">
      <stop offset="0%" style="stop-color:#8844cc;stop-opacity:0.2"/>
      <stop offset="50%" style="stop-color:#aa66ee;stop-opacity:1"/>
      <stop offset="100%" style="stop-color:#8844cc;stop-opacity:0.2"/>
    </linearGradient>
  </defs>

  <style>
    /* 连接线流动动画 */
    @keyframes flow1 {
      0% { stroke-dashoffset: 0; }
      100% { stroke-dashoffset: -40; }
    }
    @keyframes flow2 {
      0% { stroke-dashoffset: 0; }
      100% { stroke-dashoffset: -40; }
    }
    @keyframes flow3 {
      0% { stroke-dashoffset: 0; }
      100% { stroke-dashoffset: -40; }
    }
    @keyframes flow4 {
      0% { stroke-dashoffset: 0; }
      100% { stroke-dashoffset: -40; }
    }

    /* 节点呼吸动画 */
    @keyframes pulse1 {
      0%, 100% { opacity: 0.6; r: 4; }
      50% { opacity: 1; r: 6; }
    }
    @keyframes pulse2 {
      0%, 100% { opacity: 0.5; r: 3; }
      50% { opacity: 1; r: 5; }
    }
    @keyframes pulse3 {
      0%, 100% { opacity: 0.7; r: 5; }
      50% { opacity: 1; r: 7; }
    }

    /* 流光粒子动画 */
    @keyframes flowParticle1 {
      0% { offset-distance: 0%; opacity: 0; }
      10% { opacity: 1; }
      90% { opacity: 1; }
      100% { offset-distance: 100%; opacity: 0; }
    }
    @keyframes flowParticle2 {
      0% { offset-distance: 0%; opacity: 0; }
      10% { opacity: 1; }
      90% { opacity: 1; }
      100% { offset-distance: 100%; opacity: 0; }
    }
    @keyframes flowParticle3 {
      0% { offset-distance: 0%; opacity: 0; }
      10% { opacity: 1; }
      90% { opacity: 1; }
      100% { offset-distance: 100%; opacity: 0; }
    }

    .flow-line-1 {
      stroke-dasharray: 8 12;
      animation: flow1 2s linear infinite;
    }
    .flow-line-2 {
      stroke-dasharray: 8 12;
      animation: flow2 2.5s linear infinite;
    }
    .flow-line-3 {
      stroke-dasharray: 8 12;
      animation: flow3 2.2s linear infinite;
    }
    .flow-line-4 {
      stroke-dasharray: 8 12;
      animation: flow4 1.8s linear infinite;
    }

    .node-pulse-1 {
      animation: pulse1 2s ease-in-out infinite;
    }
    .node-pulse-2 {
      animation: pulse2 2.5s ease-in-out infinite;
    }
    .node-pulse-3 {
      animation: pulse3 1.8s ease-in-out infinite;
    }

    .diamond-glow {
      filter: url(#glow);
    }
  </style>

  <!-- 背景 -->
  <rect width="2880" height="1336" fill="url(#bgGrad)"/>
  <rect width="2880" height="1336" fill="url(#grid)"/>

  <!-- ==================== 菱形处理阶段 ==================== -->

  <!-- 菱形 1: 数据提取 (top row) -->
  <g class="diamond-glow" transform="translate(576, 600)">
    <!-- 菱形主体 -->
    <polygon points="0,-130 155,0 0,130 -155,0"
             fill="url(#diamondFill)"
             stroke="url(#diamondStroke)"
             stroke-width="2"/>
    <!-- 菱形边框高亮 -->
    <polygon points="0,-130 155,0 0,130 -155,0"
             fill="none"
             stroke="#6a4aff"
             stroke-width="1"
             opacity="0.5"/>
    <!-- 内部神经网络节点 -->
    <!-- 第1列节点 -->
    <circle cx="-80" cy="-40" r="4" fill="url(#nodeCyan)" class="node-pulse-1"/>
    <circle cx="-80" cy="0" r="4" fill="url(#nodeBlue)" class="node-pulse-2"/>
    <circle cx="-80" cy="40" r="4" fill="url(#nodeCyan)" class="node-pulse-3"/>
    <!-- 第2列节点 -->
    <circle cx="-30" cy="-60" r="4" fill="url(#nodePurple)" class="node-pulse-2"/>
    <circle cx="-30" cy="-20" r="4" fill="url(#nodeCyan)" class="node-pulse-1"/>
    <circle cx="-30" cy="20" r="4" fill="url(#nodeBlue)" class="node-pulse-3"/>
    <circle cx="-30" cy="60" r="4" fill="url(#nodePurple)" class="node-pulse-1"/>
    <!-- 第3列节点 -->
    <circle cx="30" cy="-60" r="4" fill="url(#nodeBlue)" class="node-pulse-3"/>
    <circle cx="30" cy="-20" r="4" fill="url(#nodePurple)" class="node-pulse-2"/>
    <circle cx="30" cy="20" r="4" fill="url(#nodeCyan)" class="node-pulse-1"/>
    <circle cx="30" cy="60" r="4" fill="url(#nodeBlue)" class="node-pulse-2"/>
    <!-- 第4列节点 -->
    <circle cx="80" cy="-40" r="4" fill="url(#nodeCyan)" class="node-pulse-1"/>
    <circle cx="80" cy="0" r="4" fill="url(#nodeBlue)" class="node-pulse-3"/>
    <circle cx="80" cy="40" r="4" fill="url(#nodeCyan)" class="node-pulse-2"/>
    <!-- 节点间连线 -->
    <g stroke="#8888ff" stroke-width="0.5" opacity="0.4">
      <!-- 第1列 -> 第2列 -->
      <line x1="-80" y1="-40" x2="-30" y2="-60"/>
      <line x1="-80" y1="-40" x2="-30" y2="-20"/>
      <line x1="-80" y1="0" x2="-30" y2="-20"/>
      <line x1="-80" y1="0" x2="-30" y2="20"/>
      <line x1="-80" y1="40" x2="-30" y2="20"/>
      <line x1="-80" y1="40" x2="-30" y2="60"/>
      <!-- 第2列 -> 第3列 -->
      <line x1="-30" y1="-60" x2="30" y2="-60"/>
      <line x1="-30" y1="-60" x2="30" y2="-20"/>
      <line x1="-30" y1="-20" x2="30" y2="-60"/>
      <line x1="-30" y1="-20" x2="30" y2="-20"/>
      <line x1="-30" y1="-20" x2="30" y2="20"/>
      <line x1="-30" y1="20" x2="30" y2="-20"/>
      <line x1="-30" y1="20" x2="30" y2="20"/>
      <line x1="-30" y1="20" x2="30" y2="60"/>
      <line x1="-30" y1="60" x2="30" y2="20"/>
      <line x1="-30" y1="60" x2="30" y2="60"/>
      <!-- 第3列 -> 第4列 -->
      <line x1="30" y1="-60" x2="80" y2="-40"/>
      <line x1="30" y1="-20" x2="80" y2="-40"/>
      <line x1="30" y1="-20" x2="80" y2="0"/>
      <line x1="30" y1="20" x2="80" y2="0"/>
      <line x1="30" y1="20" x2="80" y2="40"/>
      <line x1="30" y1="60" x2="80" y2="40"/>
    </g>
    <!-- 标题标签 -->
    <rect x="-55" y="-155" width="110" height="28" rx="14" fill="#0d0d2b" stroke="#6a4aff" stroke-width="1.5"/>
    <text x="0" y="-136" text-anchor="middle" fill="#aaaaff" font-size="16" font-family="sans-serif" font-weight="bold">数据提取</text>
  </g>

  <!-- 菱形 2: 数据清洗 (bottom row) -->
  <g class="diamond-glow" transform="translate(1090, 750)">
    <polygon points="0,-130 155,0 0,130 -155,0"
             fill="url(#diamondFill)"
             stroke="url(#diamondStroke)"
             stroke-width="2"/>
    <polygon points="0,-130 155,0 0,130 -155,0"
             fill="none"
             stroke="#7a4aff"
             stroke-width="1"
             opacity="0.5"/>
    <!-- 内部节点 -->
    <circle cx="-80" cy="-40" r="4" fill="url(#nodeCyan)" class="node-pulse-2"/>
    <circle cx="-80" cy="0" r="4" fill="url(#nodePurple)" class="node-pulse-3"/>
    <circle cx="-80" cy="40" r="4" fill="url(#nodeCyan)" class="node-pulse-1"/>
    <circle cx="-30" cy="-60" r="4" fill="url(#nodeBlue)" class="node-pulse-1"/>
    <circle cx="-30" cy="-20" r="4" fill="url(#nodeCyan)" class="node-pulse-3"/>
    <circle cx="-30" cy="20" r="4" fill="url(#nodePurple)" class="node-pulse-2"/>
    <circle cx="-30" cy="60" r="4" fill="url(#nodeBlue)" class="node-pulse-3"/>
    <circle cx="30" cy="-60" r="4" fill="url(#nodePurple)" class="node-pulse-3"/>
    <circle cx="30" cy="-20" r="4" fill="url(#nodeBlue)" class="node-pulse-1"/>
    <circle cx="30" cy="20" r="4" fill="url(#nodeCyan)" class="node-pulse-2"/>
    <circle cx="30" cy="60" r="4" fill="url(#nodePurple)" class="node-pulse-1"/>
    <circle cx="80" cy="-40" r="4" fill="url(#nodeCyan)" class="node-pulse-3"/>
    <circle cx="80" cy="0" r="4" fill="url(#nodePurple)" class="node-pulse-1"/>
    <circle cx="80" cy="40" r="4" fill="url(#nodeCyan)" class="node-pulse-2"/>
    <!-- 节点连线 -->
    <g stroke="#8888ff" stroke-width="0.5" opacity="0.4">
      <line x1="-80" y1="-40" x2="-30" y2="-60"/>
      <line x1="-80" y1="-40" x2="-30" y2="-20"/>
      <line x1="-80" y1="0" x2="-30" y2="-20"/>
      <line x1="-80" y1="0" x2="-30" y2="20"/>
      <line x1="-80" y1="40" x2="-30" y2="20"/>
      <line x1="-80" y1="40" x2="-30" y2="60"/>
      <line x1="-30" y1="-60" x2="30" y2="-60"/>
      <line x1="-30" y1="-60" x2="30" y2="-20"/>
      <line x1="-30" y1="-20" x2="30" y2="-60"/>
      <line x1="-30" y1="-20" x2="30" y2="-20"/>
      <line x1="-30" y1="-20" x2="30" y2="20"/>
      <line x1="-30" y1="20" x2="30" y2="-20"/>
      <line x1="-30" y1="20" x2="30" y2="20"/>
      <line x1="-30" y1="20" x2="30" y2="60"/>
      <line x1="-30" y1="60" x2="30" y2="20"/>
      <line x1="-30" y1="60" x2="30" y2="60"/>
      <line x1="30" y1="-60" x2="80" y2="-40"/>
      <line x1="30" y1="-20" x2="80" y2="-40"/>
      <line x1="30" y1="-20" x2="80" y2="0"/>
      <line x1="30" y1="20" x2="80" y2="0"/>
      <line x1="30" y1="20" x2="80" y2="40"/>
      <line x1="30" y1="60" x2="80" y2="40"/>
    </g>
    <!-- 标题标签 -->
    <rect x="-55" y="130" width="110" height="28" rx="14" fill="#0d0d2b" stroke="#7a4aff" stroke-width="1.5"/>
    <text x="0" y="150" text-anchor="middle" fill="#9988ff" font-size="16" font-family="sans-serif" font-weight="bold">数据清洗</text>
  </g>

  <!-- 菱形 3: 数据标注 (top row) -->
  <g class="diamond-glow" transform="translate(1392, 600)">
    <polygon points="0,-130 155,0 0,130 -155,0"
             fill="url(#diamondFill)"
             stroke="url(#diamondStroke)"
             stroke-width="2"/>
    <polygon points="0,-130 155,0 0,130 -155,0"
             fill="none"
             stroke="#8a4aff"
             stroke-width="1"
             opacity="0.5"/>
    <circle cx="-80" cy="-40" r="4" fill="url(#nodeBlue)" class="node-pulse-3"/>
    <circle cx="-80" cy="0" r="4" fill="url(#nodeCyan)" class="node-pulse-1"/>
    <circle cx="-80" cy="40" r="4" fill="url(#nodeBlue)" class="node-pulse-2"/>
    <circle cx="-30" cy="-60" r="4" fill="url(#nodeCyan)" class="node-pulse-2"/>
    <circle cx="-30" cy="-20" r="4" fill="url(#nodeBlue)" class="node-pulse-3"/>
    <circle cx="-30" cy="20" r="4" fill="url(#nodeCyan)" class="node-pulse-1"/>
    <circle cx="-30" cy="60" r="4" fill="url(#nodeBlue)" class="node-pulse-2"/>
    <circle cx="30" cy="-60" r="4" fill="url(#nodeCyan)" class="node-pulse-1"/>
    <circle cx="30" cy="-20" r="4" fill="url(#nodeBlue)" class="node-pulse-2"/>
    <circle cx="30" cy="20" r="4" fill="url(#nodeCyan)" class="node-pulse-3"/>
    <circle cx="30" cy="60" r="4" fill="url(#nodeBlue)" class="node-pulse-1"/>
    <circle cx="80" cy="-40" r="4" fill="url(#nodeBlue)" class="node-pulse-2"/>
    <circle cx="80" cy="0" r="4" fill="url(#nodeCyan)" class="node-pulse-3"/>
    <circle cx="80" cy="40" r="4" fill="url(#nodeBlue)" class="node-pulse-1"/>
    <g stroke="#88aaff" stroke-width="0.5" opacity="0.4">
      <line x1="-80" y1="-40" x2="-30" y2="-60"/>
      <line x1="-80" y1="-40" x2="-30" y2="-20"/>
      <line x1="-80" y1="0" x2="-30" y2="-20"/>
      <line x1="-80" y1="0" x2="-30" y2="20"/>
      <line x1="-80" y1="40" x2="-30" y2="20"/>
      <line x1="-80" y1="40" x2="-30" y2="60"/>
      <line x1="-30" y1="-60" x2="30" y2="-60"/>
      <line x1="-30" y1="-60" x2="30" y2="-20"/>
      <line x1="-30" y1="-20" x2="30" y2="-60"/>
      <line x1="-30" y1="-20" x2="30" y2="-20"/>
      <line x1="-30" y1="-20" x2="30" y2="20"/>
      <line x1="-30" y1="20" x2="30" y2="-20"/>
      <line x1="-30" y1="20" x2="30" y2="20"/>
      <line x1="-30" y1="20" x2="30" y2="60"/>
      <line x1="-30" y1="60" x2="30" y2="20"/>
      <line x1="-30" y1="60" x2="30" y2="60"/>
      <line x1="30" y1="-60" x2="80" y2="-40"/>
      <line x1="30" y1="-20" x2="80" y2="-40"/>
      <line x1="30" y1="-20" x2="80" y2="0"/>
      <line x1="30" y1="20" x2="80" y2="0"/>
      <line x1="30" y1="20" x2="80" y2="40"/>
      <line x1="30" y1="60" x2="80" y2="40"/>
    </g>
    <rect x="-55" y="-155" width="110" height="28" rx="14" fill="#0d0d2b" stroke="#8a4aff" stroke-width="1.5"/>
    <text x="0" y="-136" text-anchor="middle" fill="#8888ff" font-size="16" font-family="sans-serif" font-weight="bold">数据标注</text>
  </g>

  <!-- 菱形 4: 数据质量评估 (bottom row) -->
  <g class="diamond-glow" transform="translate(1720, 750)">
    <polygon points="0,-130 155,0 0,130 -155,0"
             fill="url(#diamondFill)"
             stroke="url(#diamondStroke)"
             stroke-width="2"/>
    <polygon points="0,-130 155,0 0,130 -155,0"
             fill="none"
             stroke="#9a4aff"
             stroke-width="1"
             opacity="0.5"/>
    <circle cx="-80" cy="-40" r="4" fill="url(#nodePurple)" class="node-pulse-1"/>
    <circle cx="-80" cy="0" r="4" fill="url(#nodeCyan)" class="node-pulse-2"/>
    <circle cx="-80" cy="40" r="4" fill="url(#nodePurple)" class="node-pulse-3"/>
    <circle cx="-30" cy="-60" r="4" fill="url(#nodeBlue)" class="node-pulse-3"/>
    <circle cx="-30" cy="-20" r="4" fill="url(#nodePurple)" class="node-pulse-1"/>
    <circle cx="-30" cy="20" r="4" fill="url(#nodeBlue)" class="node-pulse-2"/>
    <circle cx="-30" cy="60" r="4" fill="url(#nodePurple)" class="node-pulse-3"/>
    <circle cx="30" cy="-60" r="4" fill="url(#nodePurple)" class="node-pulse-2"/>
    <circle cx="30" cy="-20" r="4" fill="url(#nodeBlue)" class="node-pulse-3"/>
    <circle cx="30" cy="20" r="4" fill="url(#nodePurple)" class="node-pulse-1"/>
    <circle cx="30" cy="60" r="4" fill="url(#nodeBlue)" class="node-pulse-2"/>
    <circle cx="80" cy="-40" r="4" fill="url(#nodePurple)" class="node-pulse-3"/>
    <circle cx="80" cy="0" r="4" fill="url(#nodeBlue)" class="node-pulse-1"/>
    <circle cx="80" cy="40" r="4" fill="url(#nodePurple)" class="node-pulse-2"/>
    <g stroke="#aa88ff" stroke-width="0.5" opacity="0.4">
      <line x1="-80" y1="-40" x2="-30" y2="-60"/>
      <line x1="-80" y1="-40" x2="-30" y2="-20"/>
      <line x1="-80" y1="0" x2="-30" y2="-20"/>
      <line x1="-80" y1="0" x2="-30" y2="20"/>
      <line x1="-80" y1="40" x2="-30" y2="20"/>
      <line x1="-80" y1="40" x2="-30" y2="60"/>
      <line x1="-30" y1="-60" x2="30" y2="-60"/>
      <line x1="-30" y1="-60" x2="30" y2="-20"/>
      <line x1="-30" y1="-20" x2="30" y2="-60"/>
      <line x1="-30" y1="-20" x2="30" y2="-20"/>
      <line x1="-30" y1="-20" x2="30" y2="20"/>
      <line x1="-30" y1="20" x2="30" y2="-20"/>
      <line x1="-30" y1="20" x2="30" y2="20"/>
      <line x1="-30" y1="20" x2="30" y2="60"/>
      <line x1="-30" y1="60" x2="30" y2="20"/>
      <line x1="-30" y1="60" x2="30" y2="60"/>
      <line x1="30" y1="-60" x2="80" y2="-40"/>
      <line x1="30" y1="-20" x2="80" y2="-40"/>
      <line x1="30" y1="-20" x2="80" y2="0"/>
      <line x1="30" y1="20" x2="80" y2="0"/>
      <line x1="30" y1="20" x2="80" y2="40"/>
      <line x1="30" y1="60" x2="80" y2="40"/>
    </g>
    <rect x="-65" y="130" width="130" height="28" rx="14" fill="#0d0d2b" stroke="#9a4aff" stroke-width="1.5"/>
    <text x="0" y="150" text-anchor="middle" fill="#aa88ff" font-size="14" font-family="sans-serif" font-weight="bold">数据质量评估</text>
  </g>

  <!-- 菱形 5: 数据可视化与分析 (top row) -->
  <g class="diamond-glow" transform="translate(2100, 600)">
    <polygon points="0,-130 155,0 0,130 -155,0"
             fill="url(#diamondFill)"
             stroke="url(#diamondStroke)"
             stroke-width="2"/>
    <polygon points="0,-130 155,0 0,130 -155,0"
             fill="none"
             stroke="#6a4aff"
             stroke-width="1"
             opacity="0.5"/>
    <circle cx="-80" cy="-40" r="4" fill="url(#nodeCyan)" class="node-pulse-3"/>
    <circle cx="-80" cy="0" r="4" fill="url(#nodePurple)" class="node-pulse-1"/>
    <circle cx="-80" cy="40" r="4" fill="url(#nodeCyan)" class="node-pulse-2"/>
    <circle cx="-30" cy="-60" r="4" fill="url(#nodeCyan)" class="node-pulse-1"/>
    <circle cx="-30" cy="-20" r="4" fill="url(#nodePurple)" class="node-pulse-2"/>
    <circle cx="-30" cy="20" r="4" fill="url(#nodeCyan)" class="node-pulse-3"/>
    <circle cx="-30" cy="60" r="4" fill="url(#nodePurple)" class="node-pulse-1"/>
    <circle cx="30" cy="-60" r="4" fill="url(#nodePurple)" class="node-pulse-2"/>
    <circle cx="30" cy="-20" r="4" fill="url(#nodeCyan)" class="node-pulse-3"/>
    <circle cx="30" cy="20" r="4" fill="url(#nodePurple)" class="node-pulse-1"/>
    <circle cx="30" cy="60" r="4" fill="url(#nodeCyan)" class="node-pulse-2"/>
    <circle cx="80" cy="-40" r="4" fill="url(#nodeCyan)" class="node-pulse-2"/>
    <circle cx="80" cy="0" r="4" fill="url(#nodePurple)" class="node-pulse-3"/>
    <circle cx="80" cy="40" r="4" fill="url(#nodeCyan)" class="node-pulse-1"/>
    <g stroke="#8888ff" stroke-width="0.5" opacity="0.4">
      <line x1="-80" y1="-40" x2="-30" y2="-60"/>
      <line x1="-80" y1="-40" x2="-30" y2="-20"/>
      <line x1="-80" y1="0" x2="-30" y2="-20"/>
      <line x1="-80" y1="0" x2="-30" y2="20"/>
      <line x1="-80" y1="40" x2="-30" y2="20"/>
      <line x1="-80" y1="40" x2="-30" y2="60"/>
      <line x1="-30" y1="-60" x2="30" y2="-60"/>
      <line x1="-30" y1="-60" x2="30" y2="-20"/>
      <line x1="-30" y1="-20" x2="30" y2="-60"/>
      <line x1="-30" y1="-20" x2="30" y2="-20"/>
      <line x1="-30" y1="-20" x2="30" y2="20"/>
      <line x1="-30" y1="20" x2="30" y2="-20"/>
      <line x1="-30" y1="20" x2="30" y2="20"/>
      <line x1="-30" y1="20" x2="30" y2="60"/>
      <line x1="-30" y1="60" x2="30" y2="20"/>
      <line x1="-30" y1="60" x2="30" y2="60"/>
      <line x1="30" y1="-60" x2="80" y2="-40"/>
      <line x1="30" y1="-20" x2="80" y2="-40"/>
      <line x1="30" y1="-20" x2="80" y2="0"/>
      <line x1="30" y1="20" x2="80" y2="0"/>
      <line x1="30" y1="20" x2="80" y2="40"/>
      <line x1="30" y1="60" x2="80" y2="40"/>
    </g>
    <rect x="-85" y="-155" width="170" height="28" rx="14" fill="#0d0d2b" stroke="#6a4aff" stroke-width="1.5"/>
    <text x="0" y="-136" text-anchor="middle" fill="#aaaaff" font-size="14" font-family="sans-serif" font-weight="bold">数据可视化与分析</text>
  </g>

  <!-- ==================== 菱形之间的连接线（流光动画） ==================== -->

  <!-- D1 -> D2 连接线 -->
  <path d="M 731,600 Q 910,675 935,620" fill="none" stroke="url(#flowLine1)" stroke-width="2.5" class="flow-line-1" filter="url(#glow)"/>
  <!-- D2 -> D3 连接线 -->
  <path d="M 1245,750 Q 1318,675 1237,600" fill="none" stroke="url(#flowLine1)" stroke-width="2.5" class="flow-line-2" filter="url(#glow)"/>
  <!-- D3 -> D4 连接线 -->
  <path d="M 1547,600 Q 1720,675 1565,750" fill="none" stroke="url(#flowLine1)" stroke-width="2.5" class="flow-line-3" filter="url(#glow)"/>
  <!-- D4 -> D5 连接线 -->
  <path d="M 1875,750 Q 1988,675 1945,600" fill="none" stroke="url(#flowLine1)" stroke-width="2.5" class="flow-line-4" filter="url(#glow)"/>

  <!-- 连接线流动光点 -->
  <circle r="5" fill="#8844ff" filter="url(#glowStrong)" opacity="0.8">
    <animateMotion dur="3s" repeatCount="indefinite" path="M 731,600 Q 910,675 935,620"/>
  </circle>
  <circle r="5" fill="#8844ff" filter="url(#glowStrong)" opacity="0.8">
    <animateMotion dur="3.5s" repeatCount="indefinite" path="M 1245,750 Q 1318,675 1237,600"/>
  </circle>
  <circle r="5" fill="#8844ff" filter="url(#glowStrong)" opacity="0.8">
    <animateMotion dur="2.8s" repeatCount="indefinite" path="M 1547,600 Q 1720,675 1565,750"/>
  </circle>
  <circle r="5" fill="#8844ff" filter="url(#glowStrong)" opacity="0.8">
    <animateMotion dur="3.2s" repeatCount="indefinite" path="M 1875,750 Q 1988,675 1945,600"/>
  </circle>

  <!-- ==================== 右侧应用输出区域 ==================== -->

  <!-- 连接线：菱形5 -> 右侧应用 -->
  <!-- 到大模型预训练 -->
  <path d="M 2255,600 Q 2400,550 2140,530" fill="none" stroke="url(#flowLine1)" stroke-width="2" class="flow-line-1" filter="url(#glow)" opacity="0.6"/>
  <!-- 到微调 -->
  <path d="M 2255,600 Q 2400,700 2340,720" fill="none" stroke="url(#flowLine2)" stroke-width="2" class="flow-line-2" filter="url(#glow)" opacity="0.6"/>
  <!-- 到评测 -->
  <path d="M 2255,600 Q 2400,850 2320,950" fill="none" stroke="url(#flowLine3)" stroke-width="2" class="flow-line-3" filter="url(#glow)" opacity="0.6"/>
  <!-- 到搜索 -->
  <path d="M 2255,600 Q 2400,1000 2200,1140" fill="none" stroke="url(#flowLine4)" stroke-width="2" class="flow-line-4" filter="url(#glow)" opacity="0.6"/>

  <!-- 流动光点 -->
  <circle r="4" fill="#8844ff" filter="url(#glow)" opacity="0.7">
    <animateMotion dur="2.5s" repeatCount="indefinite" path="M 2255,600 Q 2400,550 2140,530"/>
  </circle>
  <circle r="4" fill="#44cc88" filter="url(#glow)" opacity="0.7">
    <animateMotion dur="3s" repeatCount="indefinite" path="M 2255,600 Q 2400,700 2340,720"/>
  </circle>
  <circle r="4" fill="#cc8844" filter="url(#glow)" opacity="0.7">
    <animateMotion dur="2.8s" repeatCount="indefinite" path="M 2255,600 Q 2400,850 2320,950"/>
  </circle>
  <circle r="4" fill="#8844cc" filter="url(#glow)" opacity="0.7">
    <animateMotion dur="3.2s" repeatCount="indefinite" path="M 2255,600 Q 2400,1000 2200,1140"/>
  </circle>

  <!-- 大模型预训练卡片 -->
  <g transform="translate(2140, 530)" filter="url(#shadow)">
    <rect width="200" height="56" rx="28" fill="url(#cardPretrain)" stroke="#8a4aff" stroke-width="1.5" filter="url(#glow)"/>
    <text x="100" y="34" text-anchor="middle" fill="#ffffff" font-size="18" font-family="sans-serif" font-weight="bold">大模型预训练</text>
  </g>

  <!-- 金融标签 -->
  <g transform="translate(2160, 600)">
    <rect width="56" height="26" rx="13" fill="#0d0d2b" stroke="#4a4a7a" stroke-width="1"/>
    <text x="28" y="18" text-anchor="middle" fill="#8888bb" font-size="12" font-family="sans-serif">金融</text>
  </g>

  <!-- 微调卡片 -->
  <g transform="translate(2340, 720)" filter="url(#shadow)">
    <rect width="160" height="56" rx="28" fill="url(#cardFinetune)" stroke="#66eeaa" stroke-width="1.5" filter="url(#glow)"/>
    <text x="80" y="34" text-anchor="middle" fill="#ffffff" font-size="18" font-family="sans-serif" font-weight="bold">微调</text>
  </g>

  <!-- 智慧城市标签 -->
  <g transform="translate(2200, 780)">
    <rect width="80" height="26" rx="13" fill="#0d0d2b" stroke="#4a4a7a" stroke-width="1"/>
    <text x="40" y="18" text-anchor="middle" fill="#8888bb" font-size="12" font-family="sans-serif">智慧城市</text>
  </g>

  <!-- 评测卡片 -->
  <g transform="translate(2320, 950)" filter="url(#shadow)">
    <rect width="160" height="56" rx="28" fill="url(#cardEval)" stroke="#eebb66" stroke-width="1.5" filter="url(#glow)"/>
    <text x="80" y="34" text-anchor="middle" fill="#ffffff" font-size="18" font-family="sans-serif" font-weight="bold">评测</text>
  </g>

  <!-- 社交标签 -->
  <g transform="translate(2200, 1010)">
    <rect width="56" height="26" rx="13" fill="#0d0d2b" stroke="#4a4a7a" stroke-width="1"/>
    <text x="28" y="18" text-anchor="middle" fill="#8888bb" font-size="12" font-family="sans-serif">社交</text>
  </g>

  <!-- 搜索卡片 -->
  <g transform="translate(2200, 1140)" filter="url(#shadow)">
    <rect width="180" height="56" rx="28" fill="url(#cardSearch)" stroke="#aa66ee" stroke-width="1.5" filter="url(#glow)"/>
    <text x="90" y="34" text-anchor="middle" fill="#ffffff" font-size="18" font-family="sans-serif" font-weight="bold">搜索</text>
  </g>

  <!-- ==================== 左侧输入源区域 ==================== -->

  <!-- 文件类型图标 -->
  <!-- TXT -->
  <g transform="translate(100, 480)" filter="url(#shadow)">
    <rect width="72" height="72" rx="16" fill="#1a1a3a" stroke="#3a3a6a" stroke-width="1.5"/>
    <text x="36" y="46" text-anchor="middle" fill="#8888cc" font-size="28" font-weight="bold" font-family="monospace">T</text>
  </g>

  <!-- 标签 -->
  <g transform="translate(100, 580)" filter="url(#shadow)">
    <path d="M12,0 L60,0 L72,12 L72,60 L12,60 Z" fill="#1a1a3a" stroke="#3a3a6a" stroke-width="1.5"/>
    <circle cx="24" cy="30" r="5" fill="#4a4a8a"/>
  </g>

  <!-- PDF -->
  <g transform="translate(100, 660)" filter="url(#shadow)">
    <rect width="72" height="72" rx="8" fill="#1a1a3a" stroke="#3a3a6a" stroke-width="1.5"/>
    <text x="36" y="44" text-anchor="middle" fill="#cc6666" font-size="16" font-weight="bold" font-family="sans-serif">PDF</text>
  </g>

  <!-- 图片 -->
  <g transform="translate(120, 760)" filter="url(#shadow)">
    <rect width="52" height="52" rx="8" fill="#1a1a3a" stroke="#3a3a6a" stroke-width="1.5"/>
    <text x="26" y="33" text-anchor="middle" fill="#66aacc" font-size="20">🖼</text>
  </g>

  <!-- 网页/e -->
  <g transform="translate(100, 840)" filter="url(#shadow)">
    <rect width="72" height="72" rx="16" fill="#1a1a3a" stroke="#3a3a6a" stroke-width="1.5"/>
    <text x="36" y="48" text-anchor="middle" fill="#66aaff" font-size="36" font-weight="bold" font-family="serif" font-style="italic">e</text>
  </g>

  <!-- epub -->
  <g transform="translate(120, 940)" filter="url(#shadow)">
    <rect width="56" height="48" rx="6" fill="#1a1a3a" stroke="#3a3a6a" stroke-width="1.5"/>
    <text x="28" y="31" text-anchor="middle" fill="#88cc88" font-size="14" font-family="sans-serif">epub</text>
  </g>

  <!-- 点赞 -->
  <g transform="translate(120, 1010)" filter="url(#shadow)">
    <rect width="52" height="52" rx="8" fill="#1a1a3a" stroke="#3a3a6a" stroke-width="1.5"/>
    <text x="26" y="34" text-anchor="middle" fill="#cccc66" font-size="22">👍</text>
  </g>

  <!-- 终端 -->
  <g transform="translate(100, 1080)" filter="url(#shadow)">
    <rect width="72" height="60" rx="10" fill="#1a1a3a" stroke="#3a3a6a" stroke-width="1.5"/>
    <text x="20" y="38" fill="#66cc66" font-size="22" font-family="monospace">&gt;_</text>
  </g>

  <!-- 左侧图标到第一个菱形的连接虚线 -->
  <g stroke="#4a4a8a" stroke-width="1.5" stroke-dasharray="6,4" opacity="0.5">
    <path d="M 172,516 Q 350,500 421,470"/>
    <path d="M 172,616 Q 350,600 421,570"/>
    <path d="M 172,696 Q 350,640 421,640"/>
    <path d="M 172,786 Q 350,700 421,700"/>
    <path d="M 172,876 Q 350,760 421,730"/>
    <path d="M 176,964 Q 350,850 421,780"/>
    <path d="M 176,1036 Q 350,950 421,830"/>
    <path d="M 172,1110 Q 350,1050 421,880"/>
  </g>

  <!-- 左侧文本标签 -->
  <text x="185" y="510" fill="#6a6a9a" font-size="13" font-family="sans-serif">语言分类</text>
  <text x="185" y="690" fill="#6a6a9a" font-size="13" font-family="sans-serif">网页</text>

  <!-- ==================== 装饰元素 ==================== -->

  <!-- 背景光晕 -->
  <ellipse cx="1440" cy="668" rx="600" ry="300" fill="url(#diamondFill)" opacity="0.15" filter="url(#glowStrong)"/>

  <!-- 浮动光点装饰 -->
  <circle cx="300" cy="300" r="2" fill="#6a4aff" opacity="0.4" filter="url(#glow)"/>
  <circle cx="800" cy="200" r="2" fill="#8a4aff" opacity="0.3" filter="url(#glow)"/>
  <circle cx="1200" cy="250" r="2" fill="#6a4aff" opacity="0.4" filter="url(#glow)"/>
  <circle cx="2000" cy="300" r="2" fill="#7a4aff" opacity="0.3" filter="url(#glow)"/>
  <circle cx="2500" cy="400" r="2" fill="#8a4aff" opacity="0.4" filter="url(#glow)"/>
  <circle cx="500" cy="1100" r="2" fill="#6a4aff" opacity="0.3" filter="url(#glow)"/>
  <circle cx="1000" cy="1150" r="2" fill="#7a4aff" opacity="0.4" filter="url(#glow)"/>
  <circle cx="1800" cy="1100" r="2" fill="#6a4aff" opacity="0.3" filter="url(#glow)"/>
  <circle cx="2400" cy="1200" r="2" fill="#8a4aff" opacity="0.4" filter="url(#glow)"/>
  <circle cx="2700" cy="1000" r="2" fill="#7a4aff" opacity="0.3" filter="url(#glow)"/>
  <circle cx="150" cy="600" r="2" fill="#6a4aff" opacity="0.4" filter="url(#glow)"/>
  <circle cx="2600" cy="200" r="2" fill="#8a4aff" opacity="0.3" filter="url(#glow)"/>

  <!-- 菱形边框上的文字标签 -->
  <!-- 数据提取 标签已在菱形1上方 -->

  <!-- 流程箭头指示 -->
  <g opacity="0.3" fill="#6a4aff" filter="url(#glow)">
    <polygon points="750,590 770,600 750,610"/>
    <polygon points="1070,740 1090,750 1070,760"/>
    <polygon points="1370,590 1390,600 1370,610"/>
    <polygon points="1700,740 1720,750 1700,760"/>
    <polygon points="1990,590 2010,600 1990,610"/>
  </g>
</svg>
